Coordinates
version=1
nRows=19
nColumns=36
inDegrees=yes

Units are S.I. units (second, meters, Newtons, ...)
If the header above contains a line with 'inDegrees', this indicates whether rotational values are in degrees (yes) or radians (no).

endheader
time	pelvis_tilt	pelvis_list	pelvis_rotation	pelvis_tx	pelvis_ty	pelvis_tz	hip_flexion_r	hip_adduction_r	hip_rotation_r	knee_angle_r	knee_angle_r_beta	ankle_angle_r	subtalar_angle_r	mtp_angle_r	hip_flexion_l	hip_adduction_l	hip_rotation_l	knee_angle_l	knee_angle_l_beta	ankle_angle_l	subtalar_angle_l	mtp_angle_l	lumbar_extension	lumbar_bending	lumbar_rotation	arm_flex_r	arm_add_r	arm_rot_r	elbow_flex_r	pro_sup_r	arm_flex_l	arm_add_l	arm_rot_l	elbow_flex_l	pro_sup_l
      1.14583330	    -36.73862421	      1.41657847	     -1.35849649	     -0.87747229	      1.13310026	     -0.06499179	     58.16927581	     -4.08417474	     -2.44790492	     42.10191034	      0.73481696	     22.50168492	      1.80346004	     -7.49999987	     57.14764702	     -7.61026309	     -4.98521369	     40.14964017	      0.70074341	     18.20730658	      5.09508818	     -7.49999987	    -18.08482229	     -0.66787960	      0.89902894	      5.70150898	    -24.30894330	     63.50599195	     17.56234627	     36.19894694	     -0.46519197	    -26.93305351	     37.43651379	     16.90250914	     40.49910734
      1.15000000	    -36.48223089	      1.37262988	     -0.92143252	     -0.87258791	      1.13280577	     -0.06994161	     58.18507534	     -4.62654630	     -2.70337204	     43.18315313	      0.75368820	     23.18977834	      2.18419267	     -7.49999987	     57.13097840	     -7.29372056	     -4.82742566	     40.65499584	      0.70956353	     18.47917532	      5.00944208	     -7.49999987	    -18.28477282	     -0.64381749	      0.59759884	      6.80385430	    -23.93660733	     63.45841379	     17.86999152	     36.16804179	      1.01131251	    -26.41943695	     37.14936585	     16.68582664	     40.54251176
      1.15416670	    -36.40510999	      1.20637362	     -0.58595447	     -0.87858175	      1.12954592	     -0.06516064	     58.55955795	     -4.77416994	     -2.87823447	     44.24559429	      0.77223130	     23.81379012	      2.28430442	     -7.49999987	     57.51901772	     -7.27193184	     -4.52907999	     41.25075242	      0.71996145	     18.63776633	      4.93259766	     -7.49999987	    -18.47731859	     -0.65622481	      0.33865300	      7.83769578	    -23.61546894	     63.29463735	     18.35094831	     36.24071190	      2.58592246	    -26.26893320	     36.69425669	     16.86156423	     40.63345207
      1.15833330	    -36.17706072	      1.14895773	     -0.19556022	     -0.87294239	      1.13267720	     -0.07018160	     58.46886286	     -5.21489582	     -3.27118275	     45.09496611	      0.78705563	     24.02702054	      2.31816448	     -7.49999987	     57.51115485	     -6.85688764	     -4.05796239	     41.74803596	      0.72864068	     18.57754967	      4.67360735	     -7.49999987	    -18.73775487	     -0.36526420	      0.15431210	      8.83687296	    -23.46835582	     63.04092120	     18.39011083	     36.21837424	      4.01739141	    -25.62132514	     36.38761056	     17.43415780	     40.67913357
      1.16250000	    -35.74899587	      1.02645987	      0.17844636	     -0.87300839	      1.13324171	     -0.07049769	     58.04140045	     -5.62483992	     -3.90314052	     45.35775082	      0.79164209	     24.36215288	      2.82417702	     -7.49999987	     57.22206747	     -6.49516257	     -3.58616526	     42.11710920	      0.73508223	     18.59237156	      4.40605591	     -7.49999987	    -19.62955405	      0.01547675	     -0.05466905	     10.13951701	    -23.27201081	     61.84582054	     18.54640845	     37.28916871	      5.19168648	    -25.01900216	     35.19256417	     18.28067700	     41.71958075
      1.16666670	    -35.69209616	      1.15314131	      0.13466100	     -0.87870042	      1.12897526	     -0.06550958	     58.63893958	     -5.59761509	     -3.94819517	     46.18616540	      0.80610066	     24.47974229	      2.39184620	     -7.49999987	     57.48017684	     -6.33221751	     -3.37795011	     42.58394140	      0.74322999	     18.49435397	      3.53608602	     -7.49999987	    -20.35658673	     -0.04467966	     -0.31893881	     11.40324040	    -22.83820634	     57.43975122	     18.69162913	     39.40137598	      5.42983213	    -24.50043028	     28.13560579	     20.41447899	     45.86778943
      1.17083330	    -35.96053253	      1.31370089	      0.33208880	     -0.87277020	      1.12414451	     -0.07004762	     59.26508620	     -5.94506359	     -4.08083865	     47.04474222	      0.82108565	     25.29861767	      2.42083532	     -7.49999987	     58.27060736	     -6.05994459	     -3.48861711	     43.74594123	      0.76351071	     19.13734033	      3.64612208	     -7.49999987	    -20.38499097	      0.06585732	     -0.38672250	     12.45115505	    -22.72737816	     56.87464414	     18.36566493	     39.45229479	      6.15695299	    -24.13875778	     27.99945086	     21.33898160	     46.30822444
      1.17500000	    -35.84733079	      1.44121768	      0.39468084	     -0.87263386	      1.12359187	     -0.07024079	     59.64958146	     -6.06281549	     -3.84011861	     48.05268855	      0.83867763	     25.79685284	      1.86769744	     -7.49999987	     58.90104466	     -5.75592167	     -3.13645951	     45.16215352	      0.78822828	     19.53366802	      3.02537804	     -7.49999987	    -21.00454469	      0.10948616	     -0.22229856	     13.77240811	    -22.94629263	     56.25726038	     18.50871465	     40.37828845	      6.92472082	    -23.80365756	     27.73493621	     22.33243342	     47.15255513
      1.17916670	    -36.16624120	      1.34762957	      0.67667912	     -0.87264342	      1.11500639	     -0.06998085	     60.70640286	     -6.27794733	     -3.86031106	     49.72522505	      0.86786890	     26.35197870	      1.42961487	     -7.49999987	     60.09833997	     -5.48337296	     -2.51128768	     46.96803381	      0.81974683	     19.91784334	      2.33220471	     -7.49999987	    -20.72126694	      0.20838713	     -0.30627071	     14.58364711	    -22.90220803	     51.86208674	     19.67598236	     41.63790433	      6.79287475	    -23.58939125	     25.23251371	     24.10836637	     48.58541872
      1.18333330	    -36.34699961	      1.31371080	      0.72636007	     -0.86606311	      1.11131100	     -0.06597619	     61.16336578	     -6.00008536	     -3.41557568	     50.89247878	      0.88824132	     27.08846770	      0.60106439	     -7.49999987	     60.56749400	     -5.50236295	     -2.08114892	     48.23386979	      0.84183984	     20.63147474	      2.12739340	     -7.49999987	    -20.72092702	      0.08226805	     -0.20206398	     14.90529655	    -22.66075941	     44.10525157	     21.79472343	     50.02876436	      7.80404930	    -22.79540227	     22.00694133	     25.50810581	     55.93804931
      1.18750000	    -36.16817918	      1.30187133	      0.64989960	     -0.86012686	      1.10811585	     -0.06152947	     61.44326734	     -5.50869856	     -2.74851148	     52.46158088	      0.91562732	     27.81475103	     -0.05692312	     -7.49999987	     60.58421422	     -5.66148344	     -1.64100087	     49.41085452	      0.86238210	     21.48928666	      2.01983542	     -7.49999987	    -20.71182940	     -0.14422947	     -0.16744132	     15.97905556	    -22.12898293	     43.90488836	     22.51884473	     50.15402417	      8.55336627	    -22.44406490	     22.08284481	     26.07676981	     56.00111295
      1.19166670	    -36.17141479	      1.25494045	      0.53070755	     -0.85415910	      1.10469452	     -0.05755092	     61.58176894	     -4.89966803	     -2.24901870	     53.71592446	      0.93751974	     28.31392338	     -0.40767966	     -7.49999987	     60.51772698	     -5.89010578	     -1.19185271	     50.34029184	      0.87860384	     21.90029787	      1.89535199	     -7.49999987	    -20.64561664	     -0.22234778	     -0.01554821	     16.93819826	    -21.81790569	     43.78341456	     22.84861702	     50.22255186	      9.21608765	    -21.93846951	     22.14742970	     26.44026446	     56.04449324
      1.19583330	    -36.20612699	      1.31611132	      0.08277873	     -0.84916534	      1.10146961	     -0.06189827	     61.57721124	     -4.43038498	     -1.81146888	     54.56338709	      0.95231076	     29.03212533	     -0.16459291	     -7.49999987	     60.35632436	     -6.41112146	     -1.55812924	     51.21270490	      0.89383032	     23.23645101	      2.86777644	     -7.49999987	    -20.23937102	     -0.25519810	      0.43485767	     17.45031082	    -21.72856582	     43.61772445	     23.23990288	     50.67617344	      9.59703954	    -21.33883930	     22.23851574	     26.81931765	     56.22475560
      1.20000000	    -36.26067894	      1.35944734	     -0.30575042	     -0.84988331	      1.10144903	     -0.06174983	     61.54145069	     -4.10888293	     -1.51720651	     54.86567040	      0.95758659	     29.44580061	      0.09114086	     -7.49999987	     60.40827586	     -6.60370724	     -1.51817018	     51.75519227	      0.90329851	     23.73227954	      2.85217773	     -7.49999987	    -20.12260390	     -0.35808952	      0.88649207	     18.48717421	    -21.86352306	     43.35722427	     23.37138152	     51.18282900	     10.21358790	    -20.80328565	     22.12118942	     27.51167119	     56.43870522
      1.20416670	    -35.66145693	      1.27461679	     -0.72754047	     -0.83201754	      1.09896781	     -0.05761808	     60.26093160	     -3.67023667	     -1.59677720	     54.92318414	      0.95859040	     30.29549867	      1.22650009	     -7.49999987	     59.31707656	     -7.03949406	     -1.41789585	     52.35650335	      0.91379337	     24.59710992	      3.19426551	     -7.49999987	    -20.16350791	     -0.48909468	      1.48911038	     19.47061125	    -21.86505434	     43.24044333	     22.66720641	     51.61489091	     11.00833015	    -20.01879921	     22.09432961	     28.26342402	     56.71090265
      1.20833330	    -34.61347799	      0.96140338	     -1.03047043	     -0.82086717	      1.10379340	     -0.05854203	     57.73069857	     -3.36681556	     -2.14164504	     53.85742121	      0.93998933	     31.07329730	      2.52465214	     -7.49999987	     57.60402236	     -7.48981191	     -1.42567560	     52.88401104	      0.92300011	     25.47288855	      3.66375074	     -7.49999987	    -21.16347951	     -0.41965597	      2.00924649	     21.23977064	    -21.37844633	     42.97207744	     22.60452136	     52.24580069	     11.76742214	    -19.14732496	     22.10496962	     28.83807228	     57.12956532
      1.21250000	    -33.31534858	      0.81901557	     -1.41357940	     -0.81589345	      1.10559652	     -0.06279879	     55.56293313	     -3.35432313	     -2.39847012	     53.44047456	      0.93271223	     31.64576277	      3.64121165	     -7.49999987	     55.55830281	     -7.66417454	     -1.47059670	     52.97197659	      0.92453540	     26.09451154	      3.44907503	     -7.49999987	    -22.55651282	     -0.30035512	      2.31526388	     22.98585648	    -21.12198404	     42.52298639	     22.75831632	     52.78074433	     12.73273179	    -18.21022493	     21.89767794	     29.05169584	     57.46507587
      1.21666670	    -32.43460655	      0.79152682	     -1.48143996	     -0.81115772	      1.10296828	     -0.05862444	     54.22419011	     -3.36944083	     -2.47805105	     53.88233606	      0.94042417	     32.22689130	      4.24128988	     -7.49999987	     54.10544197	     -7.74594076	     -1.56069758	     53.14160635	      0.92749600	     27.04268929	      3.67031094	     -7.49999987	    -23.67091512	     -0.27631713	      2.84273106	     24.17409657	    -21.05002814	     40.87633280	     23.26903064	     53.58602623	     13.74761171	    -17.37381075	     21.06147982	     30.78814706	     57.96808184
      1.22083330	    -31.20575592	      0.78318655	     -1.48191164	     -0.80691733	      1.10563897	     -0.06356104	     52.58053717	     -3.61582908	     -2.47801179	     54.18934698	      0.94578252	     32.66199623	      4.61681260	     -7.49999987	     52.34787875	     -7.56925163	     -1.63900223	     53.11890336	      0.92709976	     27.79924230	      3.70263717	     -7.49999987	    -25.33200713	     -0.00924448	      2.93928279	     25.63403332	    -20.96263641	     40.36174036	     23.08608209	     54.40990729	     15.18705707	    -16.24220740	     21.13447875	     32.22233847	     58.77332592
